<svg version="1.1" id="Layer_1" xmlns="http://www.w3.org/2000/svg" xmlns:xlink="http://www.w3.org/1999/xlink" x="0px" y="0px"
	 width="100%" viewBox="0 0 176 212" enable-background="new 0 0 176 212" xml:space="preserve">
<path fill="none" opacity="1.000000" stroke="#000000" stroke-linecap="round" stroke-linejoin="round" stroke-width="2.000000"
	d="
M60.000000,58.500000 
	C61.808052,60.675095 62.529617,63.158001 62.525208,66.000038 
	C62.483021,93.166641 62.503391,120.333336 62.488480,147.500000 
	C62.487835,148.672424 62.318562,149.844757 62.190475,151.500000 
	C58.178493,151.500000 54.339245,151.500000 50.500000,151.500000 
"/>
<path fill="none" opacity="1.000000" stroke="#000000" stroke-linecap="round" stroke-linejoin="round" stroke-width="14.000000"
	d="
M85.500000,145.500000 
	C85.500000,137.666672 85.317307,129.827789 85.554802,122.001663 
	C85.764458,115.092697 86.716248,113.924446 93.500145,113.983246 
	C101.666199,114.054039 109.835106,114.100990 117.999260,113.957710 
	C122.127182,113.885262 125.752419,112.816933 127.046486,108.012520 
	C128.161819,103.871674 126.908363,99.319908 123.500000,96.750000 
"/>
<path fill="none" opacity="1.000000" stroke="#000000" stroke-linecap="round" stroke-linejoin="round" stroke-width="14.000000"
	d="
M137.250000,35.000000 
	C140.885834,39.182888 141.645187,44.182400 141.524338,49.500553 
	C141.410767,54.497971 141.502243,59.500000 141.499527,64.500000 
	C141.494476,73.785164 134.116150,78.042694 125.990547,73.516975 
	C122.209259,71.410912 119.207596,68.998688 119.957756,63.993668 
	C120.266037,61.936867 119.596375,59.995258 118.000000,58.500000 
"/>
<path fill="none" opacity="1.000000" stroke="#000000" stroke-linecap="round" stroke-linejoin="round" stroke-width="14.000000"
	d="
M113.000000,54.000000 
	C106.500000,54.000000 99.999374,53.944004 93.500191,54.016880 
	C87.815987,54.080624 85.755463,55.830673 85.562668,61.502129 
	C85.307999,68.993469 85.639023,76.504128 85.416557,83.997520 
	C85.348488,86.290298 87.089676,87.292976 87.750000,89.000000 
"/>
<path fill="none" opacity="1.000000" stroke="#000000" stroke-linecap="round" stroke-linejoin="round" stroke-width="15.000000"
	d="
M96.750000,155.500000 
	C97.500000,156.666672 98.453690,157.750565 98.966843,159.013474 
	C102.227524,167.038361 98.157158,173.110123 89.500458,172.971573 
	C79.167114,172.806183 68.822662,173.559280 58.494640,172.555130 
	C57.122528,172.421722 56.100689,171.851410 55.000000,171.250000 
"/>
<path fill="none" opacity="1.000000" stroke="#000000" stroke-linecap="round" stroke-linejoin="round" stroke-width="2.000000"
	d="
M122.000000,94.500000 
	C121.088882,91.944466 118.898643,92.572876 116.999901,92.502632 
	C108.502907,92.188255 99.981293,93.120667 91.500000,92.000000 
"/>
<path fill="none" opacity="1.000000" stroke="#000000" stroke-linecap="round" stroke-linejoin="round" stroke-width="2.000000"
	d="
M49.500000,43.500000 
	C49.768208,44.820641 48.941990,46.278084 50.000000,47.500000 
"/>
<path fill="none" opacity="1.000000" stroke="#000000" stroke-linecap="round" stroke-linejoin="round" stroke-width="2.000000"
	d="
M49.500000,162.500000 
	C49.768208,163.820648 48.941990,165.278091 50.000000,166.500000 
"/>
</svg>